<svg width="56" height="57" viewBox="0 0 56 57" fill="none" xmlns="http://www.w3.org/2000/svg">
<path d="M40.7615 5.09918C40.0224 4.35386 38.729 4.35386 37.9899 5.09918C36.3269 6.96254 22.6538 23.733 22.6538 32.3046C22.6538 41.6215 30.0446 49.075 39.2833 49.075C48.5219 49.075 55.9128 41.6215 55.9128 32.3046C55.9128 23.733 42.2397 6.96254 40.7615 5.09918Z" fill="#DAF346"/>
<path d="M53.8803 25.0374C51.1087 25.7827 50.7392 28.5778 47.2285 28.5778C43.1636 28.5778 43.1636 24.851 39.2834 24.851C35.4031 24.851 35.2183 28.5778 31.3381 28.5778C27.8275 28.5778 27.4579 25.7827 24.6863 25.0374C23.5777 27.2734 22.8386 29.6958 22.6538 32.3046C22.6538 32.8636 22.6538 33.6089 22.8385 34.1679C23.0233 34.1679 23.2081 34.1679 23.3928 34.1679C27.4578 34.1679 27.4578 37.8947 31.338 37.8947C35.2182 37.8947 35.403 34.1679 39.2832 34.1679C43.1634 34.1679 43.3481 37.8947 47.2284 37.8947C51.1086 37.8947 51.2935 34.1679 55.1737 34.1679C55.3584 34.1679 55.5433 34.1679 55.728 34.1679C55.728 33.6089 55.9128 32.8636 55.9128 32.3046C55.728 29.6958 54.989 27.2734 53.8803 25.0374Z" fill="#B7EB46"/>
<path d="M47.2285 37.8947C43.1636 37.8947 43.1636 34.1679 39.2833 34.1679C35.4031 34.1679 35.2183 37.8947 31.3381 37.8947C27.4579 37.8947 27.2731 34.1679 23.3929 34.1679C23.2082 34.1679 23.0233 34.1679 22.8386 34.1679C23.9472 43.2985 32.0772 50.0066 41.3158 48.8886C49.0762 47.957 54.989 41.8078 55.9128 34.1679C55.728 34.1679 55.5432 34.1679 55.3584 34.1679C51.2935 34.1679 51.2935 37.8947 47.2285 37.8947Z" fill="url(#paint0_linear)"/>
<path d="M16.6752 9.0448C15.6609 8.8403 14.5769 9.57257 14.3526 10.6139C13.9467 13.1126 11.3775 34.8693 15.9207 42.0331C20.859 49.8197 31.0032 51.8648 38.7452 46.6345C46.4872 41.4042 48.7302 30.9907 43.7919 23.2041C39.2486 16.0404 18.9016 9.76524 16.6752 9.0448Z" fill="#DAF346"/>
<path d="M38.2332 18.2987C36.3074 20.4885 37.4781 23.0313 34.5388 25.0168C31.1354 27.3158 29.1619 24.2042 25.9132 26.3988C22.6644 28.5933 24.4833 31.8095 21.2345 34.004C18.2952 35.9896 16.5057 33.8649 13.7904 34.8101C14.0464 37.3041 14.7104 39.7446 15.9371 42.0273C16.2331 42.494 16.6278 43.1163 17.0786 43.4786C17.2332 43.3741 17.388 43.2695 17.5427 43.1651C20.9461 40.866 22.9196 43.9776 26.1683 41.7831C29.417 39.5885 27.5982 36.3724 30.8469 34.1779C34.0956 31.9833 36.2238 34.9904 39.4726 32.7959C42.7213 30.6013 40.9025 27.3851 44.1513 25.1906C44.3059 25.0861 44.4607 24.9815 44.6154 24.8771C44.3193 24.4103 44.0793 23.6835 43.7833 23.2168C42.2471 21.1432 40.3456 19.5386 38.2332 18.2987Z" fill="#B7EB46"/>
<path d="M39.488 32.8129C36.0843 35.1122 34.1106 32.0002 30.8616 34.195C27.6127 36.3898 29.4316 39.6063 26.1826 41.8011C22.9337 43.9959 20.8053 40.9884 17.5563 43.1832C17.4016 43.2877 17.2468 43.3923 17.0921 43.4968C22.856 50.4939 33.216 51.4967 40.3595 45.3375C46.3641 40.17 48.0583 31.6908 44.7857 24.7888C44.631 24.8933 44.4763 24.9979 44.3216 25.1024C40.9179 27.4017 42.8916 30.5136 39.488 32.8129Z" fill="url(#paint1_linear)"/>
<defs>
<linearGradient id="paint0_linear" x1="29.7615" y1="46.4154" x2="48.9942" y2="27.3462" gradientUnits="userSpaceOnUse">
<stop stop-color="#E6FE34"/>
<stop offset="1" stop-color="#87AD3C"/>
</linearGradient>
<linearGradient id="paint1_linear" x1="29.3751" y1="49.8078" x2="34.8029" y2="22.8896" gradientUnits="userSpaceOnUse">
<stop stop-color="#E6FE34"/>
<stop offset="1" stop-color="#87AD3C"/>
</linearGradient>
</defs>
</svg>
